<?xml version="1.0" standalone="no"?>
<!DOCTYPE svg PUBLIC "-//W3C//DTD SVG 20010904//EN"
 "http://www.w3.org/TR/2001/REC-SVG-20010904/DTD/svg10.dtd">
<svg version="1.0" xmlns="http://www.w3.org/2000/svg"
 width="100.000000pt" height="100.000000pt" viewBox="0 0 100.000000 100.000000"
 preserveAspectRatio="xMidYMid meet">
<metadata>
Created by potrace 1.10, written by Peter Selinger 2001-2011
</metadata>
<g transform="translate(0.000000,100.000000) scale(0.100000,-0.100000)"
fill="#000000" stroke="none">
<path d="M285 809 c-110 -50 -203 -94 -208 -98 -4 -4 90 -53 209 -109 l217
-102 175 81 c96 45 193 92 215 105 l41 23 -64 29 c-36 16 -131 59 -211 96 -81
36 -153 66 -160 66 -8 0 -104 -41 -214 -91z"/>
<path d="M133 532 c-35 -15 -63 -29 -63 -32 1 -3 98 -49 217 -102 l216 -97
213 97 c117 53 214 99 214 102 0 3 -32 18 -71 34 l-71 29 -91 -42 c-51 -24
-117 -52 -147 -63 l-55 -21 -136 62 c-75 33 -142 61 -150 61 -8 -1 -42 -13
-76 -28z"/>
<path d="M135 326 l-70 -33 70 -33 c190 -87 356 -160 365 -160 6 0 81 32 168
71 86 40 182 83 212 96 l55 25 -65 34 c-36 18 -72 33 -81 34 -9 0 -69 -25
-134 -55 -144 -65 -159 -65 -315 7 -58 26 -112 47 -120 47 -8 0 -46 -15 -85
-33z"/>
</g>
</svg>
